<svg width="630" height="507" viewBox="0 0 630 507" fill="none" xmlns="http://www.w3.org/2000/svg">
<g clip-path="url(#clip0_1396_310)">
<path d="M144.129 500.584C144.129 503.843 112.944 506.489 74.4719 506.489C35.9995 506.489 4.80273 503.844 4.80273 500.584C4.80273 497.325 35.9877 494.68 74.4719 494.68C112.956 494.68 144.129 497.325 144.129 500.584Z" fill="#F5F7FF"/>
<path d="M339.059 174.149C324.269 170.321 312.381 159.062 304.069 146.28C295.758 133.498 290.441 119.066 284.216 105.156C273.657 81.5638 260.04 58.855 240.801 41.5441C221.563 24.2332 196.134 12.7232 170.25 14.0055C144.364 15.2878 118.691 30.9309 109.316 55.0169C98.7407 82.186 110.053 113.265 127.079 136.956C144.105 160.648 166.659 180.083 182.828 204.363C198.997 228.643 208.062 260.947 194.64 286.838C183.729 307.885 161.011 319.541 140.206 330.994C119.402 342.446 97.5408 357.055 91.1866 379.883C82.7754 410.098 106.953 441.625 136.343 452.8C165.733 463.976 198.437 460.136 229.637 456.134C280.144 449.657 330.65 443.182 381.157 436.704C402.585 433.957 424.433 431.089 443.925 421.8C463.417 412.512 480.51 395.538 484.182 374.315C487.816 353.312 478.393 329.89 488.865 311.309C497.903 295.271 518.328 289.664 536.758 288.705C555.186 287.745 574.373 289.781 591.493 282.913C624.758 269.567 637.076 225.829 626.083 191.804C615.09 157.78 587.108 132.134 558.4 110.715C536.52 94.3897 511.687 78.9452 484.359 79.2957C460.942 79.5966 438.948 91.7754 422.127 108.017C398.691 130.646 381.145 185.039 339.064 174.149H339.059Z" fill="#F5F7FF"/>
<path d="M540.176 66.896L538.994 66.5571C539.787 63.8056 540.279 61.0073 540.456 58.2441L541.684 58.3215C541.501 61.1738 540.994 64.0583 540.176 66.896Z" fill="#DBE5FF"/>
<path d="M337.637 361.77C333.561 357.819 329.117 354.169 324.43 350.921L325.132 349.914C329.875 353.2 334.37 356.893 338.495 360.89L337.637 361.77ZM309.625 342.364C304.443 339.914 299.053 337.9 293.606 336.379L293.937 335.198C299.451 336.736 304.906 338.775 310.151 341.256L309.624 342.364H309.625ZM276.802 333.105C271.726 332.478 266.123 332.068 259.677 331.85L259.719 330.625C266.202 330.843 271.84 331.256 276.955 331.887L276.804 333.104L276.802 333.105ZM242.461 331.604C236.832 331.576 231.013 331.547 225.211 331.347L225.255 330.121C231.038 330.321 236.849 330.351 242.467 330.378L242.461 331.605V331.604ZM207.978 330.064C206.686 329.904 205.395 329.725 204.106 329.528C199.734 328.858 195.321 327.936 190.993 326.787L191.31 325.601C195.597 326.739 199.966 327.653 204.295 328.316C205.571 328.512 206.85 328.689 208.132 328.848L207.98 330.064H207.978ZM174.612 321.242C169.343 319.063 164.12 316.501 159.089 313.63L159.7 312.565C164.686 315.411 169.862 317.948 175.082 320.108L174.61 321.242H174.612ZM144.63 304.167C140.04 300.751 135.59 297.012 131.404 293.056L132.251 292.167C136.402 296.089 140.813 299.798 145.367 303.184L144.63 304.167ZM119.566 280.489C115.872 276.082 112.407 271.421 109.269 266.636L110.299 265.964C113.413 270.709 116.848 275.332 120.511 279.702L119.566 280.489ZM100.678 251.672C99.2492 248.798 97.9072 245.846 96.6867 242.898C95.7227 240.567 94.8041 238.173 93.9587 235.785L95.1191 235.376C95.9571 237.744 96.8684 240.117 97.8251 242.43C99.0339 245.353 100.364 248.28 101.781 251.127L100.678 251.672ZM89.1399 219.229C87.8623 213.69 86.8705 207.976 86.1936 202.246L87.4155 202.102C88.088 207.79 89.0725 213.459 90.3398 218.956L89.1399 219.231V219.229ZM85.0713 185.047C85.061 184.308 85.0566 183.569 85.0566 182.83C85.0566 177.862 85.2808 172.814 85.7189 167.827L86.9452 167.935C86.5086 172.887 86.2873 177.9 86.2873 182.832C86.2873 183.566 86.2917 184.299 86.302 185.033L85.0713 185.049V185.047ZM89.2864 150.982L88.0777 150.755C89.137 145.134 90.4893 139.495 92.0936 133.995L93.2745 134.338C91.6804 139.8 90.3384 145.4 89.285 150.982H89.2864ZM98.8668 118.159L97.724 117.703C99.6463 112.918 101.797 108.178 104.119 103.616C104.386 103.09 104.657 102.564 104.931 102.04L106.022 102.605C105.751 103.125 105.483 103.646 105.217 104.169C102.912 108.7 100.776 113.407 98.8668 118.159ZM437.335 114.816C431.625 114.59 425.834 114.073 420.118 113.283L420.288 112.068C425.963 112.853 431.715 113.366 437.385 113.591L437.335 114.816ZM454.62 114.631L454.544 113.407C460.271 113.053 466.007 112.398 471.592 111.457L471.798 112.666C466.169 113.613 460.39 114.274 454.619 114.631H454.62ZM403.132 110.093C397.556 108.768 391.969 107.159 386.526 105.309L386.923 104.147C392.33 105.985 397.879 107.584 403.418 108.9L403.133 110.093H403.132ZM488.667 108.878L488.33 107.698C494.341 105.996 499.622 104.126 504.473 101.974L504.972 103.096C500.068 105.271 494.735 107.162 488.667 108.878ZM370.448 98.9861C365.197 96.6289 360.014 94.0016 355.039 91.1741L355.649 90.108C360.588 92.9164 365.738 95.5263 370.952 97.8674L370.448 98.9861ZM520.009 94.504L519.278 93.5167C520.28 92.7806 521.269 92.008 522.217 91.2223C525.673 88.3598 528.754 85.1292 531.372 81.6226L532.358 82.3543C529.683 85.9398 526.534 89.2404 523.002 92.1658C522.036 92.9661 521.028 93.7518 520.009 94.5025V94.504ZM114.648 87.8092L113.613 87.1447C116.702 82.3704 120.07 77.6472 123.626 73.1037L124.596 73.8588C121.063 78.3716 117.716 83.067 114.648 87.8092ZM340.457 81.922C335.741 78.598 331.167 75.0169 326.859 71.2825L327.667 70.3566C331.943 74.0662 336.485 77.6195 341.168 80.9216L340.457 81.9235V81.922ZM135.741 60.83L134.84 59.9946C138.722 55.8308 142.855 51.7561 147.123 47.8814L147.953 48.7884C143.71 52.6411 139.601 56.691 135.742 60.83H135.741ZM314.421 59.314C310.477 55.1005 306.742 50.6563 303.322 46.1041L304.308 45.368C307.702 49.8852 311.407 54.2958 315.322 58.4757L314.422 59.3125L314.421 59.314ZM161.109 37.7779L160.358 36.8082C164.884 33.3191 169.619 29.9586 174.43 26.8171L175.104 27.8438C170.319 30.9678 165.61 34.3093 161.109 37.7779ZM293.538 31.92C290.636 27.5839 287.219 22.5832 283.401 18.1273L284.337 17.3314C288.199 21.8384 291.641 26.8741 294.562 31.2409L293.538 31.9215V31.92ZM189.832 19.0226L189.24 17.9477C194.268 15.1932 199.466 12.5995 204.689 10.2393L205.198 11.3566C200.004 13.7036 194.833 16.2828 189.833 19.0226H189.832ZM270.682 6.94453C270.167 6.63052 269.642 6.32529 269.107 6.03173C264.785 3.65263 259.974 2.03881 254.806 1.23556L254.997 0.0233675C260.307 0.848532 265.254 2.50908 269.704 4.95829C270.253 5.26061 270.794 5.57461 271.326 5.89737L270.684 6.94453H270.682ZM221.157 5.08681L220.779 3.9199C226.678 2.01545 232.354 0.696643 237.649 0L237.81 1.21511C232.588 1.90299 226.985 3.20573 221.157 5.08535V5.08681Z" fill="#DBE5FF"/>
<path d="M353.694 381.849C352.232 379.436 350.637 377.047 348.953 374.746L349.946 374.023C351.652 376.353 353.266 378.773 354.748 381.215L353.696 381.85L353.694 381.849Z" fill="#DBE5FF"/>
<path d="M555.19 49.5293C555.222 49.6578 555.159 49.7878 555.039 49.8418L542.288 55.3799C542.269 55.3931 542.243 55.396 542.216 55.4004C542.127 55.4121 542.037 55.3756 541.979 55.304C541.903 55.2135 541.901 55.0805 541.97 54.9856L552.407 40.7373C552.472 40.654 552.573 40.6146 552.671 40.6336C552.769 40.6526 552.854 40.7271 552.878 40.8249L555.191 49.5308L555.19 49.5293Z" fill="url(#paint0_linear_1396_310)"/>
<path d="M601.215 23.2346C601.254 23.3353 601.226 23.4507 601.146 23.5252L558.337 61.9326C558.294 61.9705 558.243 61.9925 558.19 61.9998C558.159 62.0041 558.121 62.0027 558.083 61.9925C557.994 61.9662 557.926 61.8961 557.904 61.8084L550.714 34.7372L539.879 25.5713C539.796 25.5027 539.765 25.3888 539.799 25.2836C539.838 25.1828 539.926 25.1127 540.043 25.1083L600.96 23.0666C601.071 23.0622 601.177 23.1294 601.216 23.236L601.215 23.2346Z" fill="url(#paint1_linear_1396_310)"/>
<path d="M586.368 27.0763C586.412 27.2092 586.344 27.3451 586.218 27.3991L552.795 41.1056L542.402 55.294C542.357 55.3525 542.293 55.3875 542.218 55.3977C542.165 55.405 542.105 55.3977 542.054 55.3656C541.938 55.3013 541.888 55.1582 541.941 55.0341L550.71 34.4868C550.742 34.4079 550.815 34.3509 550.897 34.329L586.061 26.8967C586.202 26.8675 586.33 26.9464 586.368 27.0749V27.0763Z" fill="#C2D5FF"/>
<path d="M223.885 38.3262H406.9C426.742 38.3262 442.851 54.384 442.851 74.1631V468.032C442.851 487.812 426.742 503.869 406.9 503.869H223.885C204.043 503.869 187.934 487.812 187.934 468.032V74.1631C187.934 54.384 204.043 38.3262 223.885 38.3262Z" fill="url(#paint2_linear_1396_310)"/>
<path d="M431.828 74.1643V468.034C431.828 481.701 420.61 492.883 406.899 492.883H223.884C210.173 492.883 198.955 481.701 198.955 468.034V74.1643C198.955 60.4973 210.173 49.3145 223.884 49.3145H249.82C252.114 49.3145 253.975 51.1692 253.975 53.4563V57.9546C253.975 65.9828 260.503 72.4921 268.558 72.4921H362.225C370.278 72.4921 376.808 65.9842 376.808 57.9546V53.4563C376.808 51.1692 378.669 49.3145 380.964 49.3145H406.899C420.61 49.3145 431.828 60.4973 431.828 74.1643Z" fill="url(#paint3_linear_1396_310)"/>
<path d="M323.07 52.0664H294.617C292.61 52.0664 290.982 53.6883 290.982 55.6891C290.982 57.6899 292.61 59.3118 294.617 59.3118H323.07C325.077 59.3118 326.705 57.6899 326.705 55.6891C326.705 53.6883 325.077 52.0664 323.07 52.0664Z" fill="white"/>
<path d="M339.802 55.6932C339.802 57.9671 337.95 59.8146 335.667 59.8146C333.385 59.8146 331.525 57.9686 331.525 55.6932C331.525 53.4178 333.377 51.5645 335.667 51.5645C337.957 51.5645 339.802 53.4105 339.802 55.6932Z" fill="white"/>
<path d="M449.877 144.493V200.482C449.877 202.51 448.227 204.153 446.194 204.153H442.852V140.82H446.194C448.229 140.82 449.877 142.465 449.877 144.492V144.493Z" fill="#78A7FF"/>
<path d="M187.934 106.094V128.321H183.49C182.778 128.321 182.201 127.745 182.201 127.035V107.379C182.201 106.669 182.778 106.094 183.49 106.094H187.934Z" fill="#78A7FF"/>
<path d="M187.934 143.057V177.017H183.49C182.778 177.017 182.201 176.441 182.201 175.732V144.342C182.201 143.632 182.778 143.057 183.49 143.057H187.934Z" fill="#78A7FF"/>
<path d="M187.934 190.77V224.73H183.49C182.778 224.73 182.201 224.154 182.201 223.445V192.055C182.201 191.345 182.778 190.77 183.49 190.77H187.934Z" fill="#78A7FF"/>
<path d="M409.538 85.1602H221.287C215.345 85.1602 210.527 89.9622 210.527 95.8858V220.489C210.527 226.412 215.345 231.214 221.287 231.214H409.538C415.481 231.214 420.298 226.412 420.298 220.489V95.8858C420.298 89.9622 415.481 85.1602 409.538 85.1602Z" fill="white"/>
<path d="M388.738 192.572C388.738 194.965 386.792 196.903 384.394 196.903H246.674C244.274 196.903 242.33 194.963 242.33 192.572C242.33 190.18 244.276 188.242 246.674 188.242H384.394C386.793 188.242 388.738 190.182 388.738 192.572Z" fill="#C2D5FF"/>
<path d="M283.79 205.648H245.104C243.572 205.648 242.33 206.886 242.33 208.413C242.33 209.94 243.572 211.178 245.104 211.178H283.79C285.322 211.178 286.563 209.94 286.563 208.413C286.563 206.886 285.322 205.648 283.79 205.648Z" fill="#C2D5FF"/>
<path d="M334.352 205.648H295.666C294.134 205.648 292.893 206.886 292.893 208.413C292.893 209.94 294.134 211.178 295.666 211.178H334.352C335.884 211.178 337.126 209.94 337.126 208.413C337.126 206.886 335.884 205.648 334.352 205.648Z" fill="#C2D5FF"/>
<path d="M384.913 205.648H346.227C344.695 205.648 343.453 206.886 343.453 208.413C343.453 209.94 344.695 211.178 346.227 211.178H384.913C386.445 211.178 387.686 209.94 387.686 208.413C387.686 206.886 386.445 205.648 384.913 205.648Z" fill="#C2D5FF"/>
<path d="M351.487 141.93C351.487 161.78 335.309 177.874 315.396 177.874C295.484 177.874 279.34 161.781 279.34 141.93C279.34 122.08 295.484 105.988 315.396 105.988C335.309 105.988 351.487 122.081 351.487 141.93Z" fill="url(#paint4_linear_1396_310)"/>
<path d="M342.589 141.926C342.589 148.289 340.393 154.149 336.677 158.796C331.678 165.025 324.01 169.033 315.395 169.033C306.78 169.033 299.113 165.025 294.112 158.796C290.431 154.149 288.234 148.289 288.234 141.926C288.234 126.975 300.395 114.854 315.393 114.854C330.392 114.854 342.586 126.975 342.586 141.926H342.589Z" fill="#78A7FF"/>
<path d="M336.678 158.797C331.679 165.026 324.01 169.033 315.396 169.033C306.781 169.033 299.114 165.026 294.113 158.797C299.112 152.567 306.781 148.561 315.396 148.561C324.01 148.561 331.677 152.568 336.678 158.797Z" fill="white"/>
<path d="M325.632 140.9C325.632 146.523 321.071 151.103 315.431 151.103C309.79 151.103 305.195 146.523 305.195 140.9C305.195 135.277 309.756 130.697 315.431 130.697C321.105 130.697 325.632 135.276 325.632 140.9Z" fill="white"/>
<path d="M513.643 271.367H512.413V262.59C512.413 254.87 506.111 248.588 498.365 248.588H489.105V247.361H498.365C506.789 247.361 513.643 254.193 513.643 262.59V271.367Z" fill="#ADC8F7"/>
<path d="M498.365 366.299H489.105V365.072H498.365C506.111 365.072 512.413 358.79 512.413 351.07V342.293H513.643V351.07C513.643 359.467 506.789 366.299 498.365 366.299Z" fill="#ADC8F7"/>
<path d="M339.42 366.299H330.159C321.735 366.299 314.881 359.468 314.881 351.07V342.293H316.112V351.07C316.112 358.79 322.413 365.072 330.159 365.072H339.42V366.299Z" fill="#ADC8F7"/>
<path d="M316.112 271.367H314.881V262.59C314.881 254.193 321.735 247.361 330.159 247.361H339.42V248.588H330.159C322.413 248.588 316.112 254.87 316.112 262.59V271.367Z" fill="#ADC8F7"/>
<path d="M498.368 255.266H330.159C326.103 255.266 322.814 258.543 322.814 262.587V351.069C322.814 355.113 326.103 358.391 330.159 358.391H498.368C502.424 358.391 505.712 355.113 505.712 351.069V262.587C505.712 258.543 502.424 255.266 498.368 255.266Z" fill="url(#paint5_linear_1396_310)"/>
<path d="M505.712 280.034V262.588C505.712 258.544 502.423 255.266 498.366 255.266H330.159C326.102 255.266 322.812 258.544 322.812 262.588V280.034H505.71H505.712Z" fill="url(#paint6_linear_1396_310)"/>
<path d="M339.276 267.082C339.276 269.447 337.349 271.367 334.977 271.367C332.605 271.367 330.715 269.447 330.715 267.082C330.715 264.718 332.605 262.834 334.977 262.834C337.349 262.834 339.276 264.719 339.276 267.082Z" fill="white"/>
<path d="M351.731 267.082C351.731 269.447 349.804 271.367 347.432 271.367C345.06 271.367 343.17 269.447 343.17 267.082C343.17 264.718 345.06 262.834 347.432 262.834C349.804 262.834 351.731 264.719 351.731 267.082Z" fill="white"/>
<path d="M364.184 267.082C364.184 269.447 362.257 271.367 359.885 271.367C357.513 271.367 355.623 269.447 355.623 267.082C355.623 264.718 357.513 262.834 359.885 262.834C362.257 262.834 364.184 264.719 364.184 267.082Z" fill="white"/>
<path d="M270.747 375.176H218.516C215.345 375.176 212.775 377.738 212.775 380.898V426.117C212.775 429.277 215.345 431.839 218.516 431.839H270.747C273.917 431.839 276.487 429.277 276.487 426.117V380.898C276.487 377.738 273.917 375.176 270.747 375.176Z" fill="white"/>
<path d="M341.505 375.176H289.274C286.103 375.176 283.533 377.738 283.533 380.898V426.117C283.533 429.277 286.103 431.839 289.274 431.839H341.505C344.675 431.839 347.245 429.277 347.245 426.117V380.898C347.245 377.738 344.675 375.176 341.505 375.176Z" fill="white"/>
<path d="M412.261 375.176H360.029C356.859 375.176 354.289 377.738 354.289 380.898V426.117C354.289 429.277 356.859 431.839 360.029 431.839H412.261C415.431 431.839 418.001 429.277 418.001 426.117V380.898C418.001 377.738 415.431 375.176 412.261 375.176Z" fill="white"/>
<path d="M398.967 446.766H231.817C229.757 446.766 228.088 448.429 228.088 450.482C228.088 452.534 229.757 454.198 231.817 454.198H398.967C401.027 454.198 402.696 452.534 402.696 450.482C402.696 448.429 401.027 446.766 398.967 446.766Z" fill="white"/>
<path d="M402.698 466.315C402.698 468.366 401.029 470.031 398.969 470.031H231.817C229.758 470.031 228.088 468.368 228.088 466.315C228.088 464.263 229.757 462.598 231.817 462.598H398.969C401.027 462.598 402.698 464.261 402.698 466.315Z" fill="white"/>
<path d="M396.707 406.732L380.761 417.53C378.175 419.281 374.678 417.435 374.678 414.319V392.694C374.678 389.575 378.179 387.729 380.764 389.485L396.71 400.311C398.981 401.854 398.98 405.192 396.706 406.732H396.707Z" fill="url(#paint7_linear_1396_310)"/>
<path d="M331.358 389.564H299.647C297.796 389.564 296.295 391.061 296.295 392.906V413.913C296.295 415.759 297.796 417.255 299.647 417.255H331.358C333.209 417.255 334.71 415.759 334.71 413.913V392.906C334.71 391.061 333.209 389.564 331.358 389.564Z" fill="url(#paint8_linear_1396_310)"/>
<path d="M315.502 405.045C314.884 405.045 314.266 404.871 313.725 404.527L301.216 396.512C300.644 396.145 300.479 395.386 300.845 394.816C301.213 394.247 301.975 394.082 302.546 394.447L315.057 402.462C315.329 402.635 315.678 402.635 315.949 402.462L328.46 394.447C329.03 394.08 329.793 394.247 330.161 394.816C330.528 395.386 330.363 396.145 329.79 396.512L317.279 404.527C316.74 404.873 316.12 405.045 315.502 405.045Z" fill="white"/>
<path d="M138.479 268.956H137.248V258.086C137.248 249.609 144.166 242.713 152.67 242.713H163.534V243.94H152.67C144.845 243.94 138.479 250.285 138.479 258.086V268.956Z" fill="#ADC8F7"/>
<path d="M281.431 268.956H280.2V258.086C280.2 250.285 273.834 243.94 266.01 243.94H255.146V242.713H266.01C274.512 242.713 281.431 249.609 281.431 258.086V268.956Z" fill="#ADC8F7"/>
<path d="M163.532 363.677H152.668C144.164 363.677 137.246 356.78 137.246 348.304V337.434H138.477V348.304C138.477 356.104 144.843 362.45 152.668 362.45H163.532V363.677Z" fill="#ADC8F7"/>
<path d="M266.008 363.677H255.145V362.45H266.008C273.832 362.45 280.198 356.104 280.198 348.304V337.434H281.429V348.304C281.429 356.78 274.51 363.677 266.008 363.677Z" fill="#ADC8F7"/>
<path d="M265.828 251H152.49C148.353 251 145 254.343 145 258.466V348.682C145 352.805 148.353 356.148 152.49 356.148H265.828C269.965 356.148 273.318 352.805 273.318 348.682V258.466C273.318 254.343 269.965 251 265.828 251Z" fill="url(#paint9_linear_1396_310)"/>
<mask id="mask0_1396_310" style="mask-type:luminance" maskUnits="userSpaceOnUse" x="186" y="276" width="46" height="56">
<path d="M231.472 301.841L216.398 316.92L231.472 332H214.247L199.168 316.92L214.247 301.841H231.472ZM214.247 276L186.25 303.997L194.865 312.612L231.472 276H214.247V276Z" fill="white"/>
</mask>
<g mask="url(#mask0_1396_310)">
<path d="M199.174 316.919L207.784 325.535L231.473 301.84H214.248L199.174 316.919Z" fill="#39CEFD"/>
</g>
<mask id="mask1_1396_310" style="mask-type:luminance" maskUnits="userSpaceOnUse" x="186" y="276" width="46" height="56">
<path d="M231.472 301.841L216.398 316.92L231.472 332H214.247L199.168 316.92L214.247 301.841H231.472ZM214.247 276L186.25 303.997L194.865 312.612L231.472 276H214.247V276Z" fill="white"/>
</mask>
<g mask="url(#mask1_1396_310)">
<path d="M214.247 276H231.472L194.865 312.612L186.25 303.997L214.247 276Z" fill="#39CEFD"/>
</g>
<mask id="mask2_1396_310" style="mask-type:luminance" maskUnits="userSpaceOnUse" x="186" y="276" width="46" height="56">
<path d="M231.472 301.841L216.398 316.92L231.472 332H214.247L199.168 316.92L214.247 301.841H231.472ZM214.247 276L186.25 303.997L194.865 312.612L231.472 276H214.247V276Z" fill="white"/>
</mask>
<g mask="url(#mask2_1396_310)">
<path d="M207.783 325.535L214.247 331.994H231.473L216.399 316.92L207.783 325.535Z" fill="#03569B"/>
</g>
<mask id="mask3_1396_310" style="mask-type:luminance" maskUnits="userSpaceOnUse" x="186" y="276" width="46" height="56">
<path d="M231.472 301.841L216.398 316.92L231.472 332H214.247L199.168 316.92L214.247 301.841H231.472ZM214.247 276L186.25 303.997L194.865 312.612L231.472 276H214.247V276Z" fill="white"/>
</mask>
<g mask="url(#mask3_1396_310)">
<path d="M220.561 321.109L216.399 316.92L207.783 325.535L220.561 321.109Z" fill="url(#paint10_linear_1396_310)"/>
</g>
<mask id="mask4_1396_310" style="mask-type:luminance" maskUnits="userSpaceOnUse" x="186" y="276" width="46" height="56">
<path d="M231.472 301.841L216.398 316.92L231.472 332H214.247L199.168 316.92L214.247 301.841H231.472ZM214.247 276L186.25 303.997L194.865 312.612L231.472 276H214.247V276Z" fill="white"/>
</mask>
<g mask="url(#mask4_1396_310)">
<path d="M199.172 316.916L207.787 308.301L216.403 316.916L207.787 325.532L199.172 316.916Z" fill="#16B9FD"/>
</g>
<path d="M231.472 301.841L216.398 316.92L231.472 332H214.247L199.168 316.92L214.247 301.841H231.472ZM214.247 276L186.25 303.997L194.865 312.612L231.472 276H214.247Z" fill="url(#paint11_radial_1396_310)"/>
<path d="M257.261 388.182C257.965 388.11 258.577 388.661 258.577 389.367V411.425C258.577 413.675 256.028 415.461 252.846 415.461C249.663 415.461 247.137 413.675 247.137 411.425C247.137 409.176 249.698 407.414 252.846 407.414C253.711 407.414 254.529 407.548 255.26 407.79V396.606L236.37 398.661V413.905C236.382 414.038 236.395 414.173 236.395 414.319C236.395 416.579 233.834 418.367 230.652 418.367C227.47 418.367 224.945 416.579 224.945 414.319C224.945 412.058 227.506 410.318 230.652 410.318C231.786 410.318 232.835 410.549 233.726 410.939V391.64C233.726 391.03 234.19 390.517 234.8 390.456L257.264 388.182H257.261Z" fill="url(#paint12_linear_1396_310)"/>
<path d="M467.758 297.161C467.758 298.614 466.575 299.793 465.118 299.793H363.408C361.95 299.793 360.768 298.614 360.768 297.161C360.768 295.708 361.95 294.529 363.408 294.529H465.118C466.575 294.529 467.758 295.708 467.758 297.161Z" fill="white"/>
<path d="M487.279 310.534C487.279 311.987 486.096 313.166 484.639 313.166H343.886C342.428 313.166 341.246 311.987 341.246 310.534C341.246 309.081 342.428 307.902 343.886 307.902H484.639C486.096 307.902 487.279 309.081 487.279 310.534Z" fill="white"/>
<path d="M487.279 323.905C487.279 325.358 486.096 326.537 484.639 326.537H343.886C342.428 326.537 341.246 325.358 341.246 323.905C341.246 322.452 342.428 321.273 343.886 321.273H484.639C486.096 321.273 487.279 322.452 487.279 323.905Z" fill="white"/>
<path d="M406.741 334.646H343.886C342.428 334.646 341.246 335.825 341.246 337.278C341.246 338.731 342.428 339.91 343.886 339.91H406.741C408.199 339.91 409.381 338.731 409.381 337.278C409.381 335.825 408.199 334.646 406.741 334.646Z" fill="white"/>
<path d="M96.4428 471.67L99.3495 488.124L83.6201 487.431L81.2832 471.67H96.4428Z" fill="#FDCCC5"/>
<path d="M79.334 473.905C73.5131 410.453 50.4668 331.09 34.6172 244.385H88.3064C86.6098 287.248 92.8893 381.813 98.7864 473.905C98.7864 476.941 79.3325 476.941 79.3325 473.905H79.334Z" fill="url(#paint13_linear_1396_310)"/>
<path d="M129.787 497.817C129.802 497.847 129.802 497.877 129.787 497.907V497.953C129.787 499.818 128.64 501.487 126.86 502.134C126.12 502.404 125.231 502.69 124.22 502.946C120.538 503.894 115.12 504.481 108.571 502.826C96.0912 499.653 84.2164 500.434 79.5222 500.63C79.3713 500.63 79.2204 500.63 79.0841 500.584C77.726 500.253 77.0916 498.013 77.0168 495.078C77.0022 494.943 77.0022 494.792 77.0168 494.658C77.0022 491.919 77.4696 488.686 78.3296 485.904C79.0841 483.422 80.1405 481.3 81.4225 480.247C81.588 480.112 81.755 479.992 81.9499 479.887C82.1609 479.751 82.388 479.66 82.6282 479.6C86.1738 478.743 92.3317 487.753 96.7227 483.39C97.2208 482.924 97.13 481.962 96.9791 480.833C96.9043 480.322 96.8282 479.765 96.7827 479.209C96.7373 478.667 96.9029 478.111 97.1754 477.6C97.8537 476.291 99.65 476.065 100.706 477.118C101.537 477.944 102.714 479.088 104.343 480.563C104.63 480.833 104.916 481.134 105.203 481.451C105.399 481.647 105.595 481.857 105.821 482.067C106.545 482.85 107.299 483.557 108.054 484.188C108.356 484.458 108.672 484.713 108.99 484.971C109.685 485.496 110.348 485.993 111.043 486.415C111.163 486.505 111.284 486.58 111.405 486.656C111.752 486.881 112.099 487.077 112.446 487.272C119.479 491.229 125.861 490.717 127.988 492.913C129.346 494.281 129.739 496.191 129.784 497.817H129.787Z" fill="url(#paint14_linear_1396_310)"/>
<path d="M80.2767 494.026C80.2767 496.463 79.8387 498.735 79.0841 500.585C77.726 500.253 77.0916 498.013 77.0168 495.079C77.0022 494.943 77.0022 494.793 77.0168 494.658C77.0022 491.92 77.4696 488.686 78.3296 485.904C79.5369 487.95 80.2767 490.838 80.2767 494.027V494.026Z" fill="#F9C55F"/>
<path d="M129.786 497.817C129.801 497.848 129.801 497.877 129.786 497.908V497.953C129.786 499.818 128.639 501.488 126.859 502.135C126.119 502.405 125.23 502.691 124.219 502.947C123.72 502.856 123.208 502.736 122.71 502.615C121.97 502.419 121.14 502.149 120.779 501.471C120.311 500.614 120.793 499.561 121.367 498.794C121.956 498.012 122.68 497.259 122.786 496.297C122.922 495.063 121.94 493.95 120.809 493.394C119.693 492.852 118.409 492.717 117.218 492.355C116.162 492.04 115.182 491.543 114.291 490.896C113.522 490.325 112.813 489.633 112.224 488.866C111.786 488.295 110.926 487.257 111.016 486.49C111.016 486.459 111.031 486.445 111.047 486.414C111.167 486.505 111.289 486.579 111.409 486.655C111.756 486.88 112.104 487.076 112.451 487.271C119.483 491.228 125.865 490.717 127.993 492.912C129.351 494.28 129.744 496.19 129.789 497.816L129.786 497.817Z" fill="#F9C55F"/>
<path d="M126.869 502.141C123.456 503.392 116.926 504.927 108.579 502.82C96.0858 499.643 84.2198 500.428 79.5109 500.634C77.8612 500.701 77.0906 498.298 77.0114 495.088C77.01 494.946 77.007 494.806 77.0158 494.659C84.759 491.802 96.3334 493.014 105.227 497.641C114.962 502.702 126.491 500.851 129.766 497.905C129.776 497.9 129.783 497.901 129.789 497.911C129.795 497.921 129.788 497.919 129.788 497.919C129.794 497.929 129.791 497.943 129.788 497.952C129.8 499.816 128.641 501.489 126.869 502.142V502.141Z" fill="#070159"/>
<path d="M97.2045 482.716C97.0507 483.779 96.4749 484.796 95.5562 485.37C94.9072 485.77 94.119 485.926 93.3512 485.919C92.5718 485.912 91.8129 485.739 91.0818 485.523C90.1514 485.26 89.2372 484.927 88.3611 484.526C86.7831 483.803 85.299 482.872 83.954 481.774C83.2874 481.219 82.6588 480.631 82.0684 479.997C82.0347 479.96 81.9893 479.922 81.9453 479.884C82.1651 479.754 82.3951 479.662 82.6339 479.604C86.1795 478.739 92.3403 487.747 96.7298 483.398C97.2162 482.931 97.1283 481.971 96.9789 480.834C97.2543 481.413 97.2997 482.076 97.2045 482.719V482.716Z" fill="#070159"/>
<path d="M38.5189 471.67L41.4243 488.124L25.6962 487.431L23.3594 471.67H38.5189Z" fill="#FDCCC5"/>
<path d="M71.8636 497.817C71.8782 497.847 71.8782 497.877 71.8636 497.907V497.953C71.8636 499.818 70.7164 501.487 68.9363 502.134C68.1964 502.404 67.3071 502.69 66.2961 502.946C62.6143 503.894 57.1963 504.481 50.6472 502.826C38.1674 499.653 26.2926 500.434 21.5984 500.63C21.4475 500.63 21.2966 500.63 21.1603 500.584C19.8021 500.253 19.1677 498.013 19.093 495.078C19.0784 494.943 19.0784 494.792 19.093 494.658C19.0784 491.919 19.5457 488.686 20.4058 485.904C21.1603 483.422 22.2166 481.3 23.4986 480.247C23.6642 480.112 23.8312 479.992 24.0261 479.887C24.237 479.751 24.4641 479.66 24.7044 479.6C28.25 478.743 34.4079 487.753 38.7988 483.39C39.297 482.924 39.2061 481.962 39.0552 480.833C38.9805 480.322 38.9043 479.765 38.8589 479.209C38.8135 478.667 38.979 478.111 39.2516 477.6C39.9299 476.291 41.7261 476.065 42.7825 477.118C43.6132 477.944 44.7897 479.088 46.4189 480.563C46.7061 480.833 46.9918 481.134 47.2789 481.451C47.4752 481.647 47.6716 481.857 47.8972 482.067C48.621 482.85 49.3755 483.557 50.13 484.188C50.4319 484.458 50.7483 484.713 51.0662 484.971C51.7607 485.496 52.4244 485.993 53.1189 486.415C53.239 486.505 53.3606 486.58 53.4808 486.656C53.828 486.881 54.1752 487.077 54.5225 487.272C61.555 491.229 67.9371 490.717 70.0644 492.913C71.4226 494.281 71.8152 496.191 71.8606 497.817H71.8636Z" fill="url(#paint15_linear_1396_310)"/>
<path d="M22.3529 494.026C22.3529 496.463 21.9148 498.735 21.1603 500.585C19.8021 500.253 19.1677 498.013 19.093 495.079C19.0784 494.943 19.0784 494.793 19.093 494.658C19.0784 491.92 19.5457 488.686 20.4058 485.904C21.613 487.95 22.3529 490.838 22.3529 494.027V494.026Z" fill="#F9C55F"/>
<path d="M71.8642 497.817C71.8788 497.848 71.8788 497.877 71.8642 497.908V497.953C71.8642 499.818 70.717 501.488 68.9369 502.135C68.197 502.405 67.3076 502.691 66.2967 502.947C65.7986 502.856 65.2858 502.736 64.7876 502.615C64.0478 502.419 63.2185 502.149 62.8566 501.471C62.3893 500.614 62.8713 499.561 63.4456 498.794C64.0346 498.012 64.7583 497.259 64.8638 496.297C65.0001 495.063 64.0185 493.95 62.8874 493.394C61.771 492.852 60.4875 492.717 59.2964 492.355C58.24 492.04 57.2599 491.543 56.3691 490.896C55.5999 490.325 54.8908 489.633 54.3018 488.866C53.8637 488.295 53.0037 487.257 53.0946 486.49C53.0946 486.459 53.1092 486.445 53.1253 486.414C53.2455 486.505 53.3671 486.579 53.4872 486.655C53.8344 486.88 54.1817 487.076 54.5289 487.271C61.5615 491.228 67.9435 490.717 70.0709 492.912C71.429 494.28 71.8217 496.19 71.8671 497.816L71.8642 497.817Z" fill="#F9C55F"/>
<path d="M68.9455 502.141C65.5318 503.392 59.0018 504.927 50.655 502.82C38.162 499.643 26.296 500.428 21.5871 500.634C19.9374 500.701 19.1667 498.298 19.0876 495.088C19.0861 494.946 19.0832 494.806 19.092 494.659C26.8351 491.802 38.4096 493.014 47.3028 497.641C57.0385 502.702 68.5675 500.851 71.842 497.905C71.8523 497.9 71.8596 497.901 71.8655 497.911C71.8713 497.921 71.864 497.919 71.864 497.919C71.8699 497.929 71.8669 497.943 71.864 497.952C71.8757 499.816 70.7168 501.489 68.9455 502.142V502.141Z" fill="#070159"/>
<path d="M39.2807 482.716C39.1268 483.779 38.551 484.796 37.6324 485.37C36.9834 485.77 36.1951 485.926 35.4274 485.919C34.648 485.912 33.889 485.739 33.1579 485.523C32.2276 485.26 31.3134 484.927 30.4372 484.526C28.8593 483.803 27.3751 482.872 26.0302 481.774C25.3635 481.219 24.735 480.631 24.1446 479.997C24.1109 479.96 24.0654 479.922 24.0215 479.884C24.2413 479.754 24.4713 479.662 24.7101 479.604C28.2557 478.739 34.4165 487.747 38.806 483.398C39.2924 482.931 39.2045 481.971 39.055 480.834C39.3305 481.413 39.3759 482.076 39.2807 482.719V482.716Z" fill="#070159"/>
<path d="M21.8566 473.02C31.6729 337.706 12.3714 337.887 15.413 242.914L69.4685 244.385L41.2079 473.021C41.2079 475.828 21.8551 475.828 21.8551 473.021L21.8566 473.02Z" fill="url(#paint16_linear_1396_310)"/>
<path d="M72.9871 128.561C77.2696 128.475 95.9806 172.497 109.044 181.95C116.403 187.274 144.023 191.879 144.023 191.879L141.971 202.11C141.971 202.11 107.633 201.052 97.834 195.752C87.5108 190.168 69.3023 171.991 66.8629 160.538C65.1663 152.577 64.8249 128.726 72.9871 128.562V128.561Z" fill="url(#paint17_linear_1396_310)"/>
<path d="M88.8092 242.14C85.7207 215.034 89.1989 158.914 78.0684 134.597C69.9824 116.924 23.7375 118.853 20.293 131.277C12.8722 158.008 30.0009 180.597 15.4933 242.141C12.4488 255.052 90.2963 255.208 88.8077 242.141L88.8092 242.14Z" fill="url(#paint18_linear_1396_310)"/>
<path d="M47.7891 172.718L56.7834 185.028L65.7924 172.718C66.9015 160.568 62.5853 145.22 56.7834 128.996C55.8443 145.732 53.8122 161.321 47.7891 172.718Z" fill="white"/>
<path d="M78.1377 103.042C76.4675 102.763 73.9665 102.983 73.9665 102.983C73.9665 102.983 73.9665 104.734 73.7716 106.91C73.7467 107.25 73.7101 107.615 73.6618 107.979C73.3687 110.58 72.771 113.473 71.5637 114.592C70.3682 115.711 68.0152 116.087 65.5392 116.026L65.8805 133.045L48.7343 130.686L48.2098 105.984C48.0266 105.801 47.9416 105.692 47.9416 105.692C47.9416 105.692 35.0266 89.5725 43.3324 79.3493C51.6249 69.1377 74.2962 80.4183 74.2962 80.4183C74.198 80.7586 74.2962 93.9963 74.2962 93.9963C74.2962 93.9963 81.3199 103.551 78.1377 103.041V103.042Z" fill="#FDCCC5"/>
<path d="M74.2513 84.6143C74.2513 84.6143 69.1453 86.7715 58.2229 82.8691C47.3005 78.9667 50.701 93.551 51.268 95.5533C51.268 95.5533 48.7436 87.49 45.9101 89.339C43.0765 91.1879 48.2293 106.894 48.2293 106.894C48.2293 106.894 33.7657 98.8013 31.4406 82.8063C28.6993 63.9487 41.9982 70.9327 41.9982 70.9327C41.9982 70.9327 53.3822 55.8008 67.0766 58.8152C79.0686 61.4542 73.2125 73.0241 73.2125 73.0241C73.2125 73.0241 78.5836 65.9057 83.9474 68.4119C89.8841 71.1853 82.0735 81.9957 74.2498 84.6143H74.2513Z" fill="url(#paint19_linear_1396_310)"/>
<path d="M44.561 95.5822C45.8342 98.5572 48.2912 100.367 50.042 99.6218C51.7987 98.8755 52.1825 95.8567 50.9094 92.8818C49.6318 89.898 47.1806 88.0856 45.424 88.8319C43.6732 89.5767 43.2834 92.597 44.561 95.5807V95.5822Z" fill="#FDCCC5"/>
<path d="M65.5451 116.03C65.5451 116.03 61.9907 116.024 56.7148 111.619C56.7148 111.619 57.6144 117.375 65.614 119.485L65.5451 116.03Z" fill="#EC8B73"/>
<path d="M48.4424 121.13C48.4424 121.13 45.0756 120.213 43.9167 121.488C40.8355 124.879 43.8654 136.408 47.619 137.814C50.1713 138.769 58.1049 131.585 58.1049 131.585L48.4439 121.131L48.4424 121.13Z" fill="white"/>
<path d="M65.8834 123.431C65.8834 123.431 68.7375 122.649 69.8056 123.866C72.5351 126.974 70.5865 136.183 66.8914 137.812C64.2762 138.966 57.248 131.5 57.248 131.5L65.8834 123.431Z" fill="white"/>
<path d="M196.729 137.298L192.495 130.763C188.731 124.953 180.95 123.303 175.145 127.042L168.37 131.402C168.085 131.585 167.704 131.505 167.521 131.22C167.336 130.935 167.418 130.557 167.704 130.373L174.478 126.012C180.865 121.898 189.402 123.729 193.529 130.097L197.763 136.632C197.948 136.917 197.866 137.297 197.58 137.481C197.295 137.665 196.914 137.583 196.729 137.298Z" fill="url(#paint20_linear_1396_310)"/>
<path d="M53.8817 258.67L49.6475 252.134C49.4629 251.85 49.5449 251.47 49.8306 251.286C50.1163 251.102 50.4972 251.184 50.6818 251.468L54.916 258.004C58.6799 263.814 66.4611 265.463 72.2659 261.725L79.0406 257.364C79.3234 257.18 79.7058 257.262 79.8904 257.547C80.075 257.832 79.993 258.21 79.7073 258.394L72.9326 262.755C66.5447 266.868 58.0074 265.038 53.8802 258.67H53.8817Z" fill="url(#paint21_linear_1396_310)"/>
<path d="M186.301 134.749L203.981 162.037C205.532 164.432 204.842 167.627 202.439 169.174L68.2641 255.553C65.8613 257.1 62.6556 256.412 61.1041 254.017L43.4245 226.73C41.873 224.334 42.563 221.139 44.9658 219.592L179.141 133.213C181.544 131.666 184.75 132.354 186.301 134.749Z" fill="url(#paint22_linear_1396_310)"/>
<path d="M199.999 180.836C199.796 180.836 199.599 180.736 199.481 180.555C199.297 180.27 199.379 179.891 199.665 179.707L206.439 175.346C212.253 171.602 213.927 163.844 210.174 158.051L205.94 151.515C205.755 151.23 205.837 150.851 206.123 150.667C206.409 150.483 206.788 150.564 206.974 150.849L211.208 157.385C215.331 163.748 213.491 172.267 207.109 176.377L200.334 180.738C200.23 180.805 200.114 180.836 200 180.836H199.999Z" fill="url(#paint23_linear_1396_310)"/>
<path d="M40.953 238.197C40.7509 238.197 40.5531 238.098 40.4359 237.916L36.2017 231.381C32.0759 225.013 33.9117 216.502 40.3025 212.389L47.0758 208.028C47.3615 207.844 47.7424 207.926 47.927 208.211C48.1116 208.495 48.0296 208.875 47.7439 209.059L40.9692 213.42C35.1512 217.165 33.4766 224.915 37.2346 230.715L41.4688 237.251C41.6534 237.535 41.5713 237.915 41.2856 238.099C41.1816 238.166 41.0659 238.197 40.9516 238.197H40.953Z" fill="url(#paint24_linear_1396_310)"/>
<path d="M60.9399 234.789C64.3258 240.016 71.3217 241.516 76.5654 238.141L181.182 170.79C186.426 167.414 187.93 160.441 184.544 155.214C181.159 149.987 174.163 148.487 168.919 151.862L64.3024 219.213C59.0587 222.588 57.554 229.562 60.9399 234.789Z" fill="url(#paint25_linear_1396_310)"/>
<path d="M64.3024 219.212L73.5883 213.234L85.8513 232.162L76.5654 238.14C71.3217 241.515 64.3258 240.015 60.9399 234.788C57.554 229.561 59.0587 222.587 64.3024 219.212Z" fill="url(#paint26_linear_1396_310)"/>
<path d="M68.9556 232.116C65.2796 231.328 64.3962 226.491 67.5535 224.456C69.5416 223.178 72.1422 223.764 73.4008 225.712C74.0117 226.659 74.2168 227.783 73.9809 228.882C73.7436 229.986 73.0902 230.929 72.1422 231.54C71.187 232.154 70.0515 232.353 68.9556 232.116ZM68.2201 225.487C65.9682 226.936 66.6231 230.361 69.2135 230.917C70.0017 231.084 70.8031 230.941 71.4727 230.508C72.1437 230.076 72.6067 229.407 72.7766 228.623C72.9436 227.845 72.7986 227.047 72.3649 226.375C71.4815 225.005 69.6413 224.57 68.2201 225.487Z" fill="white"/>
<path d="M77.1774 230.195L73.2495 229.353C72.9169 229.281 72.7059 228.955 72.7777 228.624C72.8495 228.292 73.1762 228.079 73.5088 228.154L77.4368 228.996C77.7693 229.068 77.9803 229.393 77.9085 229.725C77.8367 230.062 77.5012 230.267 77.1774 230.195Z" fill="white"/>
<path d="M56.3639 207.752C56.3639 207.752 66.1113 205.798 66.8278 208.35C67.3874 210.34 61.9328 210.887 61.9328 210.887C61.9328 210.887 66.1172 211.878 69.3463 213.678C75.2624 216.972 67.0153 229.768 52.9766 216.771L56.3624 207.752H56.3639Z" fill="#FDCCC5"/>
<path d="M2.52386 188.044C9.36596 201.686 52.3788 217.324 52.3788 217.324C54.7113 218.356 59.3938 207.851 57.0614 206.817C57.0614 206.817 23.226 193.286 19.5148 182.744C15.7597 172.091 27.6682 149.391 32.2232 139.381C33.4671 136.614 33.7338 124.366 30.7127 124.1C26.4917 123.746 16.1377 132.383 13.0053 135.616C2.9634 146.003 -3.96367 175.132 2.52386 188.043V188.044Z" fill="url(#paint27_linear_1396_310)"/>
<path d="M482.092 161.821H480.861V154.823C480.861 146.669 487.516 140.037 495.694 140.037H504.053V141.264H495.694C488.194 141.264 482.091 147.347 482.091 154.824V161.823L482.092 161.821Z" fill="#ADC8F7"/>
<path d="M599.564 161.821H598.333V154.822C598.333 147.346 592.231 141.262 584.73 141.262H576.371V140.035H584.73C592.909 140.035 599.562 146.669 599.562 154.821V161.819L599.564 161.821Z" fill="#ADC8F7"/>
<path d="M504.055 227.1H495.696C487.516 227.1 480.863 220.467 480.863 212.313V205.314H482.094V212.313C482.094 219.791 488.196 225.873 495.698 225.873H504.056V227.1H504.055Z" fill="#ADC8F7"/>
<path d="M584.732 227.1H576.373V225.873H584.732C592.231 225.873 598.335 219.791 598.335 212.313V205.314H599.566V212.313C599.566 220.467 592.911 227.1 584.733 227.1H584.732Z" fill="#ADC8F7"/>
<path d="M584.731 147.943H495.696C491.884 147.943 488.795 151.023 488.795 154.822V212.313C488.795 216.113 491.884 219.192 495.696 219.192H584.731C588.542 219.192 591.631 216.113 591.631 212.313V154.822C591.631 151.023 588.542 147.943 584.731 147.943Z" fill="url(#paint28_linear_1396_310)"/>
<path d="M603.39 503.87C603.39 505.596 578.209 506.999 547.153 506.999C516.097 506.999 490.922 505.596 490.922 503.87C490.922 502.143 516.096 500.738 547.153 500.738C578.211 500.738 603.39 502.137 603.39 503.87Z" fill="#F5F7FF"/>
<path d="M561.07 433.956C558.611 441.746 554.764 449.409 546.811 451.628C545.768 451.939 544.804 452.047 543.885 452.047C542.671 452.047 541.519 451.861 540.351 451.658C539.9 451.596 539.433 451.52 538.967 451.441C532.529 450.56 526.336 451.533 520.086 448.461C506.888 441.965 518.99 429.937 514.529 422.458C513.393 420.561 511.439 419.318 510.388 417.167C507.987 412.265 511.559 407.272 511.96 402.69C512.365 397.761 509.468 393.043 510.233 387.826C511.191 381.147 517.655 378.398 523.993 383.869C525.519 385.188 526.858 386.755 528.165 388.261C530.515 390.992 532.742 393.583 535.886 394.762C538.268 395.676 541.239 395.725 543.45 397.555C545.957 399.634 546.376 403.171 546.486 405.654C546.569 408.265 546.517 411.173 547.731 413.381C550.544 418.455 559.155 418.999 561.569 425.003C562.706 427.843 562.004 430.993 561.071 433.956H561.07Z" fill="url(#paint29_linear_1396_310)"/>
<path d="M549.551 427.702C549.63 427.282 549.354 426.877 548.932 426.797C548.517 426.718 548.104 426.992 548.023 427.414C548.007 427.498 546.398 435.427 539.426 440.011C538.446 435.595 537.372 431.58 536.137 427.447C540.869 422.694 541.105 415.75 541.112 415.449C541.137 414.424 539.581 414.387 539.556 415.411C539.555 415.477 539.35 421.444 535.62 425.739C535.454 425.202 533.539 419.17 533.416 418.986C532.957 417.65 532.494 416.33 532.027 415.043C535.743 409.841 535.419 402.921 535.403 402.623C535.378 402.195 535.089 401.866 534.584 401.891C534.154 401.915 533.826 402.28 533.85 402.708C533.853 402.77 534.118 408.585 531.359 413.229C530.919 412.047 530.481 410.885 530.043 409.757C530.036 409.722 530.04 409.686 530.029 409.651C530.011 409.601 529.976 409.563 529.95 409.518C529.273 407.778 528.603 406.111 527.947 404.519C530.791 400.765 530.096 395.511 530.064 395.281C530.002 394.856 529.618 394.567 529.183 394.623C528.758 394.684 528.461 395.075 528.523 395.5C528.53 395.546 529.069 399.616 527.232 402.794C526.775 401.707 526.334 400.678 525.9 399.679C525.881 399.61 525.853 399.549 525.818 399.489C522.457 391.766 519.903 386.857 519.833 386.723C519.632 386.345 519.16 386.2 518.781 386.396C518.402 386.596 518.254 387.065 518.453 387.444C518.52 387.571 520.819 391.985 523.918 399.017C518.126 398.313 516.068 393.632 515.975 393.421C515.807 393.026 515.348 392.844 514.957 393.009C514.561 393.174 514.375 393.627 514.541 394.021C514.649 394.279 517.238 400.213 524.617 400.622C525.755 403.252 526.98 406.197 528.23 409.385C522.448 410.647 518.331 403.615 518.287 403.539C518.076 403.165 517.597 403.036 517.226 403.248C516.854 403.458 516.722 403.932 516.933 404.304C516.979 404.383 520.882 411.12 526.814 411.12C527.45 411.12 528.117 411.009 528.798 410.838C529.766 413.352 530.742 416.001 531.699 418.754C524.794 419.341 519.798 413.36 519.748 413.298C519.475 412.965 518.986 412.918 518.654 413.185C518.321 413.457 518.27 413.945 518.541 414.276C518.762 414.549 523.598 420.368 530.701 420.368C531.195 420.368 531.703 420.328 532.218 420.268C533.435 423.849 534.604 427.588 535.672 431.416C527.808 432.129 522.281 426.424 522.224 426.364C521.928 426.052 521.437 426.037 521.124 426.332C520.81 426.624 520.796 427.115 521.09 427.428C521.327 427.679 526.492 433.053 534.256 433.053C534.852 433.053 535.47 433.008 536.096 432.939C537.186 436.979 538.15 441.105 538.919 445.234C530.3 447.51 522.283 439.869 522.201 439.79C521.891 439.494 521.399 439.5 521.1 439.802C520.8 440.11 520.806 440.601 521.112 440.899C521.424 441.204 527.733 447.248 535.559 447.248C536.739 447.248 537.955 447.1 539.19 446.786C539.805 450.322 540.279 453.853 540.547 457.328C540.578 457.735 540.917 458.045 541.32 458.045C541.342 458.045 541.361 458.045 541.382 458.042C541.811 458.01 542.131 457.637 542.098 457.209C541.701 452.066 540.835 446.604 539.785 441.62C547.745 436.734 549.485 428.075 549.554 427.701L549.551 427.702Z" fill="#ADC8F7"/>
<path d="M593.709 408.294C593.009 409.704 591.95 410.838 590.922 411.924C587.879 415.234 586.066 417.385 588.448 427.27C589.632 432.188 590.518 436.936 588.23 440.985C585.647 445.533 579.307 447.941 574.112 448.773C569.132 449.577 564.363 449.261 558.983 449.999C555.609 450.44 553.086 451.262 549.489 450.231C539.827 447.493 535.219 438.337 532.211 428.788C531.09 425.204 530.234 421.403 531.604 417.99C534.513 410.696 544.971 410.113 548.46 403.823C549.945 401.162 549.899 397.68 550.002 394.329C550.515 381.992 557.651 383.136 562.827 381.202C568.861 378.931 572.321 372.255 577.38 367.89C581.007 364.74 585.116 363.608 588.354 364.864C591.794 366.199 593.46 369.736 593.881 372.607C594.779 378.94 591.281 384.729 591.78 390.714C592.002 393.534 593.081 396.007 593.927 399.109C594.954 402.894 594.893 405.888 593.709 408.294Z" fill="url(#paint30_linear_1396_310)"/>
<path d="M588.639 380.069C588.805 379.675 588.617 379.222 588.223 379.055C587.83 378.895 587.375 379.074 587.205 379.47C587.09 379.736 584.474 385.677 577.089 386.425C580.93 377.685 583.791 372.193 583.874 372.038C584.074 371.658 583.926 371.189 583.546 370.989C583.168 370.798 582.696 370.94 582.494 371.316C580.59 374.947 576.827 382.899 573.346 391.212C570.876 387.253 571.566 381.973 571.573 381.915C571.632 381.491 571.336 381.1 570.911 381.039C570.492 380.989 570.092 381.275 570.032 381.697C569.992 381.976 569.144 388.391 572.64 392.914C571.041 396.79 569.761 400.067 568.319 403.961C564.724 398.199 565.073 390.8 565.077 390.72C565.131 389.699 563.578 389.604 563.524 390.635C563.503 390.998 563.106 399.444 567.66 405.748C567.077 407.353 566.498 408.999 565.925 410.669C565.785 410.866 563.719 417.339 563.161 419.153C558.376 413.85 558.116 406.308 558.115 406.227C558.104 405.807 557.757 405.471 557.337 405.471H557.318C556.888 405.481 556.549 405.837 556.559 406.265C556.568 406.632 556.855 415.101 562.646 420.853C561.071 426.106 559.737 431.15 558.557 436.496C549.816 430.886 547.809 420.993 547.79 420.89C547.709 420.468 547.298 420.191 546.882 420.273C546.46 420.353 546.181 420.758 546.262 421.178C546.347 421.632 548.467 432.199 558.201 438.108C556.801 444.731 555.813 451.321 555.359 457.211C555.324 457.661 555.681 458.046 556.135 458.046C556.537 458.046 556.878 457.737 556.909 457.329C557.242 453.028 557.83 448.653 558.598 444.271C560.15 444.686 561.679 444.88 563.162 444.88C572.637 444.88 580.282 437.554 580.661 437.186C580.969 436.888 580.975 436.396 580.673 436.09C580.376 435.786 579.882 435.78 579.573 436.078C579.473 436.176 569.534 445.644 558.871 442.72C559.823 437.581 561.022 432.443 562.383 427.416C563.191 427.509 563.985 427.569 564.753 427.569C574.147 427.569 580.398 421.066 580.685 420.762C580.979 420.449 580.965 419.959 580.651 419.665C580.338 419.373 579.847 419.386 579.551 419.699C579.482 419.773 572.589 426.881 562.809 425.894C564.141 421.107 565.603 416.433 567.125 411.963C567.792 412.046 568.45 412.1 569.088 412.1C577.67 412.1 583.52 405.062 583.787 404.733C584.059 404.402 584.006 403.914 583.674 403.642C583.343 403.374 582.852 403.422 582.579 403.755C582.515 403.834 576.26 411.303 567.642 410.448C568.85 406.965 570.082 403.615 571.305 400.447C572.173 400.679 573.019 400.822 573.828 400.822C580.963 400.822 585.675 392.693 585.731 392.598C585.942 392.226 585.81 391.753 585.436 391.541C585.066 391.329 584.589 391.458 584.375 391.834C584.324 391.929 579.164 400.79 571.874 398.995C573.44 394.998 574.972 391.312 576.395 388.027C585.372 387.576 588.608 380.151 588.639 380.073V380.069Z" fill="#ADC8F7"/>
<path d="M574.284 458.812V481.403C574.284 489.828 570.206 497.835 563.357 502.831C562.424 503.513 561.271 503.871 560.027 503.871H535.262C533.97 503.871 532.724 503.453 531.65 502.645C524.864 497.572 520.973 489.83 520.973 481.404V458.814C520.973 457.542 522.016 456.502 523.292 456.502H571.965C573.241 456.502 574.284 457.542 574.284 458.814V458.812Z" fill="url(#paint31_linear_1396_310)"/>
<path d="M574.284 469.611V478.285C574.284 478.719 573.941 479.061 573.506 479.061H521.753C521.332 479.061 520.975 478.719 520.975 478.285V469.611C520.975 469.192 521.332 468.836 521.753 468.836H573.506C573.941 468.836 574.284 469.192 574.284 469.611Z" fill="url(#paint32_linear_1396_310)"/>
<path d="M72.3929 92.0703C72.3929 92.6223 71.9476 93.0605 71.3996 93.0605C70.8516 93.0605 70.4062 92.6223 70.4062 92.0703C70.4062 91.5182 70.8516 91.0859 71.3996 91.0859C71.9476 91.0859 72.3929 91.5255 72.3929 92.0703Z" fill="#070159"/>
<path d="M72.0329 87.911C72.0739 88.1359 71.8996 88.3287 71.7267 88.482C70.8579 89.2882 69.9876 90.0929 69.1085 90.8991C68.8624 91.1342 68.6074 91.3679 68.2807 91.4701C67.954 91.5826 67.554 91.511 67.3606 91.2262C67.1863 90.9502 67.2683 90.5734 67.4734 90.3193C67.5658 90.1966 69.7751 88.0658 71.1245 87.6481C71.2989 87.597 71.4718 87.5561 71.6564 87.5867C71.8307 87.6072 72.0036 87.7401 72.0344 87.9124L72.0329 87.911Z" fill="url(#paint33_linear_1396_310)"/>
<path d="M73.7703 106.907C73.7454 107.248 73.7088 107.613 73.6604 107.976C72.9294 108.268 72.1367 108.341 71.3675 108.184C70.6965 108.038 70.0387 107.722 69.5025 107.223C69.2827 107.04 69.271 106.725 69.4658 106.517C69.649 106.298 69.9786 106.287 70.1852 106.469C71.1361 107.344 72.6847 107.478 73.7703 106.907Z" fill="#EC8B73"/>
<path d="M523.44 193.884L504.785 185.541C504.255 185.293 503.841 184.959 503.545 184.54C503.248 184.12 503.102 183.647 503.102 183.117V182.745C503.102 182.216 503.248 181.743 503.545 181.322C503.841 180.903 504.255 180.57 504.785 180.32L523.44 171.977C523.689 171.885 523.938 171.838 524.189 171.838C524.719 171.838 525.163 172.016 525.522 172.374C525.88 172.732 526.06 173.174 526.06 173.703C526.06 174.077 525.943 174.426 525.71 174.752C525.475 175.077 525.172 175.318 524.797 175.474L507.964 182.932L524.797 190.389C525.171 190.545 525.475 190.785 525.71 191.112C525.944 191.437 526.06 191.788 526.06 192.16C526.06 192.69 525.88 193.132 525.522 193.489C525.163 193.847 524.719 194.025 524.189 194.025C523.94 194.025 523.691 193.979 523.44 193.885V193.884Z" fill="white"/>
<path d="M531.366 200.597C531.007 200.223 530.828 199.773 530.828 199.243C530.828 199.059 530.875 198.824 530.969 198.546L543.359 162.423C543.484 162.049 543.702 161.739 544.014 161.49C544.325 161.241 544.716 161.117 545.183 161.117C545.744 161.117 546.203 161.304 546.563 161.677C546.921 162.049 547.101 162.5 547.101 163.027C547.101 163.214 547.054 163.448 546.961 163.727L534.57 199.849C534.445 200.223 534.227 200.531 533.915 200.781C533.603 201.03 533.213 201.154 532.746 201.154C532.185 201.154 531.725 200.968 531.367 200.597H531.366Z" fill="white"/>
<path d="M552.36 193.487C552.001 193.131 551.822 192.689 551.822 192.158C551.822 191.786 551.939 191.435 552.172 191.11C552.407 190.783 552.71 190.543 553.085 190.387L569.918 182.93L553.085 175.473C552.712 175.316 552.407 175.077 552.172 174.75C551.939 174.422 551.822 174.073 551.822 173.701C551.822 173.172 552.001 172.731 552.36 172.372C552.717 172.016 553.161 171.836 553.693 171.836C553.973 171.836 554.224 171.883 554.44 171.975L573.097 180.318C573.628 180.568 574.041 180.901 574.337 181.32C574.634 181.741 574.781 182.214 574.781 182.743V183.115C574.781 183.645 574.633 184.117 574.337 184.538C574.041 184.957 573.628 185.293 573.097 185.54L554.44 193.882C554.224 193.975 553.973 194.022 553.693 194.022C553.161 194.022 552.719 193.844 552.36 193.486V193.487Z" fill="white"/>
</g>
<defs>
<linearGradient id="paint0_linear_1396_310" x1="541.088" y1="48.8639" x2="554.859" y2="47.0721" gradientUnits="userSpaceOnUse">
<stop stop-color="#E7ECFF"/>
<stop offset="1" stop-color="#C2D5FF"/>
</linearGradient>
<linearGradient id="paint1_linear_1396_310" x1="542.257" y1="44.4738" x2="602.946" y2="36.5774" gradientUnits="userSpaceOnUse">
<stop stop-color="#E7ECFF"/>
<stop offset="1" stop-color="#C2D5FF"/>
</linearGradient>
<linearGradient id="paint2_linear_1396_310" x1="187.934" y1="271.097" x2="442.851" y2="271.097" gradientUnits="userSpaceOnUse">
<stop stop-color="#78A7FF"/>
<stop offset="1" stop-color="#3D79F3"/>
</linearGradient>
<linearGradient id="paint3_linear_1396_310" x1="316.639" y1="324.531" x2="294.823" y2="-617.156" gradientUnits="userSpaceOnUse">
<stop stop-color="#E7ECFF"/>
<stop offset="1" stop-color="#C2D5FF"/>
</linearGradient>
<linearGradient id="paint4_linear_1396_310" x1="279.338" y1="141.93" x2="351.487" y2="141.93" gradientUnits="userSpaceOnUse">
<stop stop-color="#E7ECFF"/>
<stop offset="1" stop-color="#C2D5FF"/>
</linearGradient>
<linearGradient id="paint5_linear_1396_310" x1="414.264" y1="380.441" x2="414.264" y2="238.805" gradientUnits="userSpaceOnUse">
<stop stop-color="#E7ECFF"/>
<stop offset="1" stop-color="#C2D5FF"/>
</linearGradient>
<linearGradient id="paint6_linear_1396_310" x1="413.935" y1="249.098" x2="414.499" y2="287.529" gradientUnits="userSpaceOnUse">
<stop stop-color="#B3B3FF"/>
<stop offset="1" stop-color="#8F8FEA"/>
</linearGradient>
<linearGradient id="paint7_linear_1396_310" x1="374.676" y1="403.507" x2="398.413" y2="403.507" gradientUnits="userSpaceOnUse">
<stop stop-color="#FF8888"/>
<stop offset="1" stop-color="#F24E4E"/>
</linearGradient>
<linearGradient id="paint8_linear_1396_310" x1="296.295" y1="403.41" x2="334.71" y2="403.41" gradientUnits="userSpaceOnUse">
<stop stop-color="#FFBB83"/>
<stop offset="1" stop-color="#FF9D45"/>
</linearGradient>
<linearGradient id="paint9_linear_1396_310" x1="145" y1="303.572" x2="273.318" y2="303.572" gradientUnits="userSpaceOnUse">
<stop stop-color="#E7ECFF"/>
<stop offset="1" stop-color="#C2D5FF"/>
</linearGradient>
<linearGradient id="paint10_linear_1396_310" x1="210.297" y1="327.198" x2="216.714" y2="320.781" gradientUnits="userSpaceOnUse">
<stop stop-color="#1A237E" stop-opacity="0.4"/>
<stop offset="1" stop-color="#1A237E" stop-opacity="0"/>
</linearGradient>
<radialGradient id="paint11_radial_1396_310" cx="0" cy="0" r="1" gradientUnits="userSpaceOnUse" gradientTransform="translate(187.52 279.817) scale(68.5086)">
<stop stop-color="white" stop-opacity="0.1"/>
<stop offset="1" stop-color="white" stop-opacity="0"/>
</radialGradient>
<linearGradient id="paint12_linear_1396_310" x1="224.942" y1="403.272" x2="258.577" y2="403.272" gradientUnits="userSpaceOnUse">
<stop stop-color="#A7C161"/>
<stop offset="1" stop-color="#8BA53A"/>
</linearGradient>
<linearGradient id="paint13_linear_1396_310" x1="98.7878" y1="360.283" x2="33.5887" y2="360.283" gradientUnits="userSpaceOnUse">
<stop stop-color="#771E24"/>
<stop offset="1" stop-color="#47090E"/>
</linearGradient>
<linearGradient id="paint14_linear_1396_310" x1="77.0066" y1="490.162" x2="129.799" y2="490.162" gradientUnits="userSpaceOnUse">
<stop stop-color="#78A7FF"/>
<stop offset="1" stop-color="#3D79F3"/>
</linearGradient>
<linearGradient id="paint15_linear_1396_310" x1="19.0828" y1="490.162" x2="71.8753" y2="490.162" gradientUnits="userSpaceOnUse">
<stop stop-color="#78A7FF"/>
<stop offset="1" stop-color="#3D79F3"/>
</linearGradient>
<linearGradient id="paint16_linear_1396_310" x1="60.3389" y1="361.736" x2="-4.4889" y2="350.701" gradientUnits="userSpaceOnUse">
<stop stop-color="#771E24"/>
<stop offset="1" stop-color="#47090E"/>
</linearGradient>
<linearGradient id="paint17_linear_1396_310" x1="106.168" y1="129.557" x2="104.023" y2="200.968" gradientUnits="userSpaceOnUse">
<stop stop-color="#FF8888"/>
<stop offset="1" stop-color="#F24E4E"/>
</linearGradient>
<linearGradient id="paint18_linear_1396_310" x1="55.7649" y1="121.892" x2="51.8575" y2="251.959" gradientUnits="userSpaceOnUse">
<stop stop-color="#FF8888"/>
<stop offset="1" stop-color="#F24E4E"/>
</linearGradient>
<linearGradient id="paint19_linear_1396_310" x1="59.0536" y1="58.2792" x2="57.5847" y2="107.176" gradientUnits="userSpaceOnUse">
<stop stop-color="#771E24"/>
<stop offset="1" stop-color="#47090E"/>
</linearGradient>
<linearGradient id="paint20_linear_1396_310" x1="173.215" y1="139.97" x2="192.046" y2="127.767" gradientUnits="userSpaceOnUse">
<stop stop-color="#E7ECFF"/>
<stop offset="1" stop-color="#C2D5FF"/>
</linearGradient>
<linearGradient id="paint21_linear_1396_310" x1="74.2461" y1="248.821" x2="55.4136" y2="261.024" gradientUnits="userSpaceOnUse">
<stop stop-color="#E7ECFF"/>
<stop offset="1" stop-color="#C2D5FF"/>
</linearGradient>
<linearGradient id="paint22_linear_1396_310" x1="52.2756" y1="240.359" x2="194.883" y2="147.95" gradientUnits="userSpaceOnUse">
<stop stop-color="#E7ECFF"/>
<stop offset="1" stop-color="#C2D5FF"/>
</linearGradient>
<linearGradient id="paint23_linear_1396_310" x1="193.836" y1="171.746" x2="212.667" y2="159.543" gradientUnits="userSpaceOnUse">
<stop stop-color="#E7ECFF"/>
<stop offset="1" stop-color="#C2D5FF"/>
</linearGradient>
<linearGradient id="paint24_linear_1396_310" x1="53.6249" y1="217.046" x2="34.7936" y2="229.249" gradientUnits="userSpaceOnUse">
<stop stop-color="#E7ECFF"/>
<stop offset="1" stop-color="#C2D5FF"/>
</linearGradient>
<linearGradient id="paint25_linear_1396_310" x1="184.556" y1="155.254" x2="61.1812" y2="235.2" gradientUnits="userSpaceOnUse">
<stop stop-color="#E7ECFF"/>
<stop offset="1" stop-color="#C2D5FF"/>
</linearGradient>
<linearGradient id="paint26_linear_1396_310" x1="230.974" y1="125.367" x2="61.2682" y2="235.335" gradientUnits="userSpaceOnUse">
<stop stop-color="#78A7FF"/>
<stop offset="1" stop-color="#3D79F3"/>
</linearGradient>
<linearGradient id="paint27_linear_1396_310" x1="38.6214" y1="125.297" x2="25.3132" y2="213.259" gradientUnits="userSpaceOnUse">
<stop stop-color="#FF8888"/>
<stop offset="1" stop-color="#F24E4E"/>
</linearGradient>
<linearGradient id="paint28_linear_1396_310" x1="488.795" y1="183.567" x2="591.631" y2="183.567" gradientUnits="userSpaceOnUse">
<stop stop-color="#E7ECFF"/>
<stop offset="1" stop-color="#C2D5FF"/>
</linearGradient>
<linearGradient id="paint29_linear_1396_310" x1="509.565" y1="416.502" x2="562.155" y2="416.502" gradientUnits="userSpaceOnUse">
<stop stop-color="#E7ECFF"/>
<stop offset="1" stop-color="#C2D5FF"/>
</linearGradient>
<linearGradient id="paint30_linear_1396_310" x1="530.898" y1="407.546" x2="594.65" y2="407.546" gradientUnits="userSpaceOnUse">
<stop stop-color="#E7ECFF"/>
<stop offset="1" stop-color="#C2D5FF"/>
</linearGradient>
<linearGradient id="paint31_linear_1396_310" x1="520.974" y1="480.185" x2="574.284" y2="480.185" gradientUnits="userSpaceOnUse">
<stop stop-color="#E7ECFF"/>
<stop offset="1" stop-color="#C2D5FF"/>
</linearGradient>
<linearGradient id="paint32_linear_1396_310" x1="520.975" y1="473.948" x2="574.284" y2="473.948" gradientUnits="userSpaceOnUse">
<stop stop-color="#B3B3FF"/>
<stop offset="1" stop-color="#8F8FEA"/>
</linearGradient>
<linearGradient id="paint33_linear_1396_310" x1="67.2625" y1="89.5467" x2="72.0388" y2="89.5467" gradientUnits="userSpaceOnUse">
<stop stop-color="#771E24"/>
<stop offset="1" stop-color="#47090E"/>
</linearGradient>
<clipPath id="clip0_1396_310">
<rect width="630" height="507" fill="white"/>
</clipPath>
</defs>
</svg>
