<?xml version="1.0" encoding="UTF-8" standalone="no" ?>
<!DOCTYPE svg PUBLIC "-//W3C//DTD SVG 1.1//EN" "http://www.w3.org/Graphics/SVG/1.1/DTD/svg11.dtd">
<svg xmlns="http://www.w3.org/2000/svg" xmlns:xlink="http://www.w3.org/1999/xlink" version="1.1" width="684" height="230" viewBox="0 0 342 115" xml:space="preserve">
<desc>Created with Fabric.js 4.6.0</desc>
<defs>
</defs>
<g transform="matrix(0.13 0 0 -0.13 172.89 47.5)" id="8d4RxtZj3P53Y8bVGSyux"  >
<path style="stroke: none; stroke-width: 1; stroke-dasharray: none; stroke-linecap: butt; stroke-dashoffset: 0; stroke-linejoin: miter; stroke-miterlimit: 4; fill: rgb(0,0,0); fill-rule: nonzero; opacity: 1;" vector-effect="non-scaling-stroke"  transform=" translate(-1163.49, -404.95)" d="M 1095 648 C 1001 615 946 524 947 403 C 948 253 1039 150 1170 150 C 1227 150 1307 178 1345 211 L 1380 242 L 1380 351 L 1380 460 L 1265 460 L 1150 460 L 1150 410 L 1150 360 L 1215 360 L 1280 360 L 1280 316 C 1280 276 1277 271 1249 261 C 1207 246 1151 247 1120 263 C 1025 311 1025 499 1120 547 C 1170 572 1205 564 1282 508 C 1297 497 1305 500 1332 528 L 1365 561 L 1323 599 C 1260 655 1171 675 1095 648 z" stroke-linecap="round" />
</g>
<g transform="matrix(0.13 0 0 -0.13 302.77 48.06)" id="hvTxLRVJsxJME13B-UGze"  >
<path style="stroke: none; stroke-width: 1; stroke-dasharray: none; stroke-linecap: butt; stroke-dashoffset: 0; stroke-linejoin: miter; stroke-miterlimit: 4; fill: rgb(0,0,0); fill-rule: nonzero; opacity: 1;" vector-effect="non-scaling-stroke"  transform=" translate(-2137.6, -400.73)" d="M 2200 580 L 2200 510 L 2157 510 C 2102 510 2031 474 2004 433 C 1964 373 1966 278 2007 221 C 2018 207 2046 185 2071 172 C 2109 152 2125 149 2187 153 C 2308 162 2300 143 2300 415 L 2300 650 L 2250 650 L 2200 650 L 2200 580 z M 2200 330 L 2200 240 L 2170 240 C 2079 240 2037 329 2099 391 C 2121 412 2138 420 2164 420 L 2200 420 L 2200 330 z" stroke-linecap="round" />
</g>
<g transform="matrix(0.13 0 0 -0.13 31.29 51.49)" id="3vn8qVKyF-F5Be5CZ2Cyw"  >
<path style="stroke: none; stroke-width: 1; stroke-dasharray: none; stroke-linecap: butt; stroke-dashoffset: 0; stroke-linejoin: miter; stroke-miterlimit: 4; fill: rgb(65,182,85); fill-rule: nonzero; opacity: 1;" vector-effect="non-scaling-stroke"  transform=" translate(-101.5, -375)" d="M 30 555 C 30 522 26 510 15 510 C 4 510 0 498 0 465 C 0 432 4 420 15 420 C 27 420 30 405 30 342 C 30 198 59 150 148 150 L 203 150 L 196 181 C 193 198 190 218 190 226 C 190 234 179 238 163 237 L 135 235 L 132 328 L 129 420 L 155 420 C 178 420 180 423 180 465 C 180 506 178 510 155 510 C 132 510 130 514 130 555 L 130 600 L 80 600 L 30 600 L 30 555 z" stroke-linecap="round" />
</g>
<g transform="matrix(0.13 0 0 -0.13 69.86 57.54)" id="VQ75NpE-ItdTkys2-IULj"  >
<path style="stroke: none; stroke-width: 1; stroke-dasharray: none; stroke-linecap: butt; stroke-dashoffset: 0; stroke-linejoin: miter; stroke-miterlimit: 4; fill: rgb(65,182,85); fill-rule: nonzero; opacity: 1;" vector-effect="non-scaling-stroke"  transform=" translate(-390.81, -329.64)" d="M 325 506 C 188 444 196 196 337 149 C 383 134 455 143 488 167 C 545 209 555 235 555 330 C 555 426 545 451 487 494 C 454 519 366 526 325 506 z M 439 411 C 482 368 473 260 425 238 C 365 211 314 266 323 349 C 331 422 395 455 439 411 z" stroke-linecap="round" />
</g>
<g transform="matrix(0.13 0 0 -0.13 220.59 56.86)" id="YJoWWRoBa1c7hUfrQ4567"  >
<path style="stroke: none; stroke-width: 1; stroke-dasharray: none; stroke-linecap: butt; stroke-dashoffset: 0; stroke-linejoin: miter; stroke-miterlimit: 4; fill: rgb(0,0,0); fill-rule: nonzero; opacity: 1;" vector-effect="non-scaling-stroke"  transform=" translate(-1521.25, -334.76)" d="M 1527 513 C 1523 510 1493 508 1460 509 L 1400 511 L 1400 331 L 1400 150 L 1450 150 L 1500 150 L 1500 275 C 1500 396 1501 400 1525 416 C 1542 427 1560 430 1588 425 L 1626 419 L 1637 464 C 1646 505 1645 509 1626 514 C 1597 522 1535 521 1527 513 z" stroke-linecap="round" />
</g>
<g transform="matrix(0.13 0 0 -0.13 118.38 67.57)" id="u62C57VEmhv36-MGmcOyr"  >
<path style="stroke: none; stroke-width: 1; stroke-dasharray: none; stroke-linecap: butt; stroke-dashoffset: 0; stroke-linejoin: miter; stroke-miterlimit: 4; fill: rgb(65,182,85); fill-rule: nonzero; opacity: 1;" vector-effect="non-scaling-stroke"  transform=" translate(-754.65, -254.39)" d="M 635 496 L 595 484 L 592 242 L 590 0 L 640 0 L 690 0 L 690 75 L 690 150 L 733 150 C 819 150 901 215 916 296 C 943 443 800 546 635 496 z M 791 391 C 830 351 830 309 791 269 C 769 248 752 240 726 240 L 690 240 L 690 330 L 690 420 L 726 420 C 752 420 769 412 791 391 z" stroke-linecap="round" />
</g>
<g transform="matrix(0.13 0 0 -0.13 257.62 57.65)" id="hXfY3dGj7sW8UbWg2IX9u"  >
<path style="stroke: none; stroke-width: 1; stroke-dasharray: none; stroke-linecap: butt; stroke-dashoffset: 0; stroke-linejoin: miter; stroke-miterlimit: 4; fill: rgb(0,0,0); fill-rule: nonzero; opacity: 1;" vector-effect="non-scaling-stroke"  transform=" translate(-1798.98, -328.81)" d="M 1723 489 C 1656 456 1651 445 1689 406 C 1720 374 1721 372 1702 366 C 1670 356 1647 311 1648 262 C 1648 226 1654 211 1679 186 C 1710 155 1711 155 1830 152 L 1950 149 L 1950 275 C 1950 430 1939 462 1878 490 C 1822 515 1775 515 1723 489 z M 1840 405 C 1851 392 1846 390 1807 390 C 1782 390 1753 387 1743 384 C 1729 380 1730 383 1749 399 C 1776 424 1822 426 1840 405 z M 1848 278 C 1844 251 1804 234 1766 244 C 1711 258 1746 299 1813 300 C 1847 300 1851 297 1848 278 z" stroke-linecap="round" />
</g>
</svg>